<?xml version="1.0" encoding="UTF-8" standalone="no" ?>
<!DOCTYPE svg PUBLIC "-//W3C//DTD SVG 1.1//EN" "http://www.w3.org/Graphics/SVG/1.1/DTD/svg11.dtd">
<svg xmlns="http://www.w3.org/2000/svg" xmlns:xlink="http://www.w3.org/1999/xlink" version="1.1" width="758" height="221" viewBox="0 0 758 221" xml:space="preserve">
<desc>Created with Fabric.js 4.2.0</desc>
<defs>
</defs>
<rect x="0" y="0" width="100%" height="100%" fill="transparent"></rect>
<g transform="matrix(Infinity NaN NaN Infinity 0 0)" id="846bdafc-d2a9-4db1-aa55-3765816b50fb"  >
</g>
<g transform="matrix(1 0 0 1 379 110.5)" id="13b3453d-0fa9-4014-b75c-c104e8868108"  >
<rect style="stroke: none; stroke-width: 1; stroke-dasharray: none; stroke-linecap: butt; stroke-dashoffset: 0; stroke-linejoin: miter; stroke-miterlimit: 4; fill: rgb(198,0,0); fill-rule: nonzero; opacity: 1; visibility: hidden;" vector-effect="non-scaling-stroke"  x="-379" y="-110.5" rx="0" ry="0" width="758" height="221" />
</g>
<g transform="matrix(0.99 0 0 0.99 413.52 173.04)"  >
<path style="stroke: none; stroke-width: 1; stroke-dasharray: none; stroke-linecap: butt; stroke-dashoffset: 0; stroke-linejoin: miter; stroke-miterlimit: 4; fill: rgb(255,255,255); fill-rule: nonzero; opacity: 1;" vector-effect="non-scaling-stroke"  transform=" translate(-413.91, -173.52)" d="M 436 204.87 C 435.3714368348514 204.90867007674552 434.7548716308597 204.68563879913978 434.29650903207 204.25379304490815 C 433.8381464332803 203.82194729067652 433.5788116050734 203.21975043877288 433.58 202.59 L 433.58 160.59 C 433.54115693006787 159.97827297261955 433.7581209385104 159.377890750817 434.1790486876667 158.93231407941278 C 434.599976436823 158.4867374080086 435.18705408419044 158.235994453616 435.8 158.24 L 441.86 158.24 C 442.47121125747145 158.23877228432036 443.05563822427246 158.49072898853882 443.47436435450277 158.93598075597828 C 443.893090484733 159.38123252341774 444.10872057632025 159.98001522517768 444.07 160.59 L 444.07 202.59 C 444.0711883949266 203.21975043877288 443.81185356671966 203.82194729067652 443.35349096793 204.25379304490815 C 442.89512836914025 204.68563879913978 442.27856316514857 204.90867007674552 441.65 204.87 Z M 321.75 203.06 C 321.39623089895656 204.2386777723781 320.2538582775001 204.99885955356785 319.03 204.87 L 316.78 204.87 C 315.4711761537323 205.02731408672372 314.2270741509297 204.2601178516621 313.78 203.02 L 302.19 178.34 L 301.75 202.23000000000002 C 301.75 204.23000000000002 300.75 204.87 298.95 204.87 L 294.58 204.87 C 293.8177871222682 204.98277908138613 293.047597298492 204.7243046186562 292.50772983794775 204.1745494756844 C 291.9678623774035 203.6247943327126 291.72340736509 202.8500407205966 291.84999999999997 202.09 L 293.65999999999997 160.72 C 293.6176118557642 160.02863883564933 293.8823858109936 159.35379058174703 294.383599839125 158.8757095087601 C 294.88481386725647 158.39762843577319 295.57141143862776 158.16501461814872 296.26 158.24 L 300.26 158.24 C 301.64029030604655 158.12242048892725 302.9292481595946 158.94080642768793 303.40999999999997 160.24 L 318.16999999999996 190.68 L 331.69999999999993 160.27 C 332.10067538251394 158.97027032678605 333.3430856300164 158.117148623501 334.69999999999993 158.21 L 338.48999999999995 158.21 C 339.1624297504128 158.12780663382904 339.8364291845791 158.35023258614362 340.32785856049776 158.81651006486956 C 340.81928793641634 159.2827875435955 341.0767848641457 159.94418294252833 341.03 160.62 L 343.2 202 C 343.28999999999996 203.66 342.53 204.84 340.67 204.84 L 335.4 204.84 C 333.53 204.84 332.73999999999995 203.99 332.66999999999996 201.71 L 331.92999999999995 178.22 Z M 426.27 201.39000000000001 C 426.7820283662026 202.09203459639576 426.8628871337822 203.0199852148089 426.47999999999996 203.8 C 426.0412304536621 204.51230865898552 425.24485971363123 204.92395923475027 424.40999999999997 204.87 L 418.28999999999996 204.87 C 416.8778831530762 204.9424257485397 415.55036054990603 204.19496434147615 414.87999999999994 202.95000000000002 L 406.87999999999994 189.44000000000003 L 398.87999999999994 202.94000000000003 C 398.2284658262485 204.24386592077295 396.8407231129206 205.01129957026376 395.38999999999993 204.87000000000003 L 390.04999999999995 204.87000000000003 C 389.2628690766805 204.93387549685266 388.50745861007334 204.54648551397722 388.09999999999997 203.87000000000003 C 387.7238661468526 203.08873681345196 387.8044072097731 202.1644322342209 388.30999999999995 201.46000000000004 L 401.30999999999995 180.91000000000003 L 389.24 161.6 C 388.7580755095571 160.90661628705158 388.69289029901444 160.00552661190284 389.07 159.25 C 389.4706226309638 158.59196253529143 390.20076628357737 158.20767640233694 390.96999999999997 158.25 L 397.15 158.25 C 398.501293884806 158.24498630645917 399.74288517062377 158.99302577679654 400.37 160.19 L 407.42 172 L 414.65000000000003 160 C 415.21602547486646 158.8320547554648 416.4478319367986 158.13841616525062 417.74 158.26 L 423.54 158.26 C 424.314694270945 158.20460424852146 425.05417027855657 158.59176446193067 425.45000000000005 159.26 C 425.81465944641724 160.03086699802896 425.709985048378 160.94192194392622 425.18000000000006 161.60999999999999 L 412.89000000000004 180.26 Z M 453.74 181.56 C 453.74 166.56 461.68 157.49 474.97 157.49 C 479.5134869453947 157.47901551392204 484.01044106090507 158.40495913195295 488.18 160.21 C 488.85730639591014 160.40808686726228 489.41178459234925 160.89652671743042 489.69372188411705 161.54343762662364 C 489.9756591758848 162.19034853581684 489.9559807833564 162.9290178247589 489.64 163.56 L 488.22999999999996 167.36 C 488.040767460513 167.96610759703702 487.59997772260493 168.4615406908841 487.02 168.72000000000003 C 486.3740389309938 168.9296549811732 485.6696015278055 168.8570325684734 485.08 168.52000000000004 C 482.31585116967875 167.23319683124234 479.3088357346204 166.5513339207983 476.26 166.52000000000004 C 469.07 166.52000000000004 464.78 172.04000000000005 464.78 181.52000000000004 C 464.78 191.00000000000003 469.07 196.52000000000004 476.26 196.52000000000004 C 479.3088357346204 196.48866607920178 482.31585116967875 195.80680316875774 485.08 194.52000000000004 C 485.6696895623809 194.1843871047992 486.37215281816174 194.10834726783324 487.02 194.31000000000003 C 487.59824960398805 194.57591387292612 488.03756976421045 195.07332595516135 488.22999999999996 195.68000000000004 L 489.64 199.48000000000005 C 489.9559807833564 200.11098217524116 489.9756591758848 200.8496514641832 489.69372188411705 201.4965623733764 C 489.41178459234925 202.14347328256963 488.85730639591014 202.63191313273776 488.18 202.83000000000004 C 484.0255526002015 204.65849049448474 479.53899473262413 205.61162873645867 475 205.63 C 461.71 205.63 453.77 196.52 453.77 181.56 Z M 494.74 181.56 C 494.74 196.29 502.74 205.63 515.38 205.63 C 528.02 205.63 536 196.29 536 181.56 C 536 166.83 528 157.49 515.37 157.49 C 502.74 157.49 494.77 166.83 494.77 181.56 Z M 505.74 181.56 C 505.74 171.62 508.98 166.56 515.37 166.56 C 521.76 166.56 525 171.56 525 181.56 C 525 191.56 521.76 196.56 515.37 196.56 C 508.98 196.56 505.78 191.5 505.78 181.56 Z M 360.74 151.88 C 360.3073096847926 151.34802667717216 360.08649709632067 150.674904431669 360.12 149.99 C 360.26141858599505 149.28319887176838 360.7130245412777 148.67738600492584 361.35 148.34 L 370.12 142.13 C 370.6948860537416 141.60489824507283 371.4648206175297 141.34704280154 372.24 141.42 C 372.93412901593626 141.58366687244413 373.5285236779915 142.02946286898555 373.88 142.64999999999998 L 375.8 145.53999999999996 C 376.2181342809505 146.086064333477 376.38528603406695 146.78374121604998 376.26 147.45999999999995 C 376.07288224108703 148.08240016030572 375.6290414978821 148.5953636422065 375.03999999999996 148.86999999999995 L 365.27 154.25999999999993 C 364.81465076079047 154.53115448500105 364.2994133015425 154.68572572277543 363.77 154.70999999999992 C 362.9617117447227 154.66439774571847 362.2332102479047 154.20766882802428 361.84 153.49999999999991 Z M 379.56 204.88 C 380.270340657896 204.95679846736078 380.97723135054304 204.70765883913296 381.482445094838 204.202445094838 C 381.98765883913296 203.69723135054303 382.2367984673608 202.990340657896 382.16 202.28 L 382.16 198.62 C 382.2173722618854 197.90685100333852 381.9495149783473 197.20595010608108 381.4311513497209 196.71282515600205 C 380.91278772109456 196.21970020592303 380.1994002060412 195.98713226856543 379.49 196.08 L 363.4 196.08 L 363.4 185.32 L 377.19 185.32 C 377.88162239483677 185.4172785148744 378.5798298433921 185.19361315732922 379.0861912920495 184.7125697811047 C 379.5925527407069 184.23152640488019 379.85170617333233 183.5456989253036 379.79 182.85 L 379.79 179.04999999999998 C 379.85170617333233 178.35430107469637 379.5925527407069 177.6684735951198 379.0861912920495 177.1874302188953 C 378.5798298433921 176.70638684267075 377.88162239483677 176.48272148512558 377.19 176.57999999999998 L 363.4 176.57999999999998 L 363.4 167.04999999999998 L 378.4 167.04999999999998 C 379.4 167.04999999999998 381.4 167.04999999999998 381.64 164.76999999999998 L 382.08 160.92999999999998 C 382.2479128800012 160.23409538764764 382.0936633073279 159.49957361301318 381.65999999999997 158.92999999999998 C 381.1378060965681 158.3970862245941 380.4027048262202 158.12877426091708 379.65999999999997 158.2 L 355.12 158.2 C 354.50878874252857 158.19877228432034 353.92436177572756 158.4507289885388 353.50563564549725 158.89598075597826 C 353.086909515267 159.34123252341772 352.87127942367977 159.94001522517766 352.91 160.54999999999998 L 352.91 202.54999999999998 C 352.9088116050734 203.17975043877286 353.16814643328036 203.7819472906765 353.62650903207003 204.21379304490813 C 354.08487163085977 204.64563879913976 354.70143683485145 204.8686700767455 355.33000000000004 204.82999999999998 Z" stroke-linecap="round" />
</g>
<g transform="matrix(0.99 0 0 0.99 294.66 91.21)"  >
<path style="stroke: none; stroke-width: 1; stroke-dasharray: none; stroke-linecap: butt; stroke-dashoffset: 0; stroke-linejoin: miter; stroke-miterlimit: 4; fill: rgb(255,255,255); fill-rule: nonzero; opacity: 1;" vector-effect="non-scaling-stroke"  transform=" translate(-293.83, -90.86)" d="M 410.74 57.08 L 397.63 57.08 C 394.4971510368173 56.912688219786155 391.48021213003045 58.28673960307522 389.55 60.76 L 371 82.11 L 371 57.11 L 352.85 57.11 L 352.85 121 C 352.8609742596931 123.0041300805425 354.4858473127683 124.62453919665874 356.49 124.63 L 371 124.63 L 371 94 L 387 119 C 389.4 122.75 391.77 124.59 397.23 124.59 L 412.2 124.59 L 386.69 84.78 L 410.74 57.08 Z M 333.84000000000003 57.08 L 293.35 57.08 L 293.35 118.61 C 293.35 121.98 296.68 124.61 300.17 124.61 L 333.84000000000003 124.61 C 335.84024855915675 124.59906943565115 337.45906943565114 122.98024855915669 337.47 120.98 L 337.47 112.3 L 314.25 112.3 C 312.7351252352111 112.28899260009054 311.51445122855347 111.05490459335974 311.52 109.53999999999999 L 311.52 95.33 L 332.21999999999997 95.33 L 332.21999999999997 83 L 311.52 83 L 311.52 69.43 L 337.52 69.43 L 337.52 60.730000000000004 C 337.52003014553725 58.72194538909798 335.898024465591 57.09100303873882 333.89 57.080000000000005 Z M 461.74 57.08 L 421.25 57.08 L 421.25 118.61 C 421.25 121.98 424.58 124.61 428.07 124.61 L 461.74 124.61 C 463.7425135812737 124.60450610459449 465.3645061045945 122.98251358127372 465.37 120.98 L 465.37 112.3 L 442.15 112.3 C 440.6351252352111 112.28899260009054 439.41445122855345 111.05490459335974 439.41999999999996 109.53999999999999 L 439.41999999999996 95.33 L 460.11999999999995 95.33 L 460.11999999999995 83 L 439.41999999999996 83 L 439.41999999999996 69.43 L 465.36999999999995 69.43 L 465.36999999999995 60.730000000000004 C 465.3700301455372 58.72194538909798 463.74802446559096 57.09100303873882 461.73999999999995 57.080000000000005 Z M 204.05 57.08 L 185.88 57.08 L 185.88 121 C 185.8854938954055 123.00251358127372 187.50748641872627 124.62450610459449 189.51 124.63 L 204.04999999999998 124.63 L 204.04999999999998 57.08 Z M 165.69 57.08 L 125.2 57.08 L 125.2 118.61 C 125.2 122.12 128.53 124.61 132.02 124.61 L 165.69 124.61 C 167.6902485591567 124.59906943565115 169.30906943565114 122.98024855915669 169.32 120.98 L 169.32 112.3 L 146.1 112.3 C 144.5851252352111 112.28899260009052 143.36445122855346 111.05490459335972 143.37 109.53999999999999 L 143.37 95.33 L 164.07 95.33 L 164.07 83 L 143.37 83 L 143.37 69.43 L 169.32 69.43 L 169.32 60.730000000000004 C 169.32003014553726 58.72194538909798 167.69802446559103 57.09100303873882 165.69 57.080000000000005 Z M 106.83 57.08 L 88.66 57.08 L 88.66 83 L 72.77 83 L 72.77 57.08 L 51.67 57.08 L 51.67 59.739999999999995 C 53.463530230937685 60.521906956283146 54.60297378613634 62.31415671498104 54.550000000000004 64.27 L 54.550000000000004 124.65 L 72.77 124.65 L 72.77 95.33 L 88.66 95.33 L 88.66 124.65 L 106.83 124.65 L 106.83 57.08 Z M 274.99 57.08 L 274.99 121 C 274.9844878634403 123.00641014130761 273.35641771292376 124.63000757163041 271.35 124.63 L 260.2 124.63 L 235.66 85.93 C 236.00045434010883 88.32829389943988 236.17087943201093 90.74766187075609 236.17000000000002 93.16999999999999 L 236.17 124.65 L 222.58 124.65 L 222.58 57.08 L 231.38000000000002 57.08 C 235.52535136458002 56.916101598643124 239.42229016037533 59.05499396829978 241.51000000000002 62.64 L 262.06 95 C 262.06 95 261.4 93 261.4 87.68 L 261.4 57.08 Z M 535.99 57.08 L 535.99 59.739999999999995 C 534.216487861412 60.54512317600501 533.0865427340482 62.322432699254385 533.11 64.27 L 533.11 121.02 C 533.1100075924484 123.0208948832149 531.4908872907808 124.64448789289807 529.49 124.64999999999999 L 518.4 124.64999999999999 L 493.86 85.93 C 494.2004543401088 88.32829389943988 494.37087943201095 90.74766187075609 494.37 93.16999999999999 L 494.37 124.65 L 480.78 124.65 L 480.78 57.08 L 489.59 57.08 C 493.7323542126554 56.91761541949212 497.62560820869186 59.05659686395481 499.71 62.64 L 520.26 95 C 520.26 95 519.6 93 519.6 87.68 L 519.6 57.08 Z" stroke-linecap="round" />
</g>
<g transform="matrix(0.99 0 0 0.99 46.36 41.82)"  >
<path style="stroke: none; stroke-width: 1; stroke-dasharray: none; stroke-linecap: butt; stroke-dashoffset: 0; stroke-linejoin: miter; stroke-miterlimit: 4; fill: rgb(237,28,36); fill-rule: nonzero; opacity: 1;" vector-effect="non-scaling-stroke"  transform=" translate(-43.01, -40.96)" d="M 17.8 81.68 C 17.408824070329874 81.98803176803341 16.861264829260556 82.0008449329671 16.45610875780629 81.7114477390712 C 16.05095268635203 81.4220505451753 15.885486466888443 80.89993347986096 16.05 80.43 C 16.55 78.93 25.68 50.790000000000006 25.68 50.790000000000006 L 0.48 32.48 C 0.06832945808546881 32.196215145146006 -0.10789576023989067 31.675622731278033 0.04675365914884244 31.200133471664913 C 0.2014030785375755 30.724644212051793 0.6501543060752188 30.4073208364014 1.1499999999999992 30.419999999999998 L 32.3 30.419999999999998 C 32.3 30.419999999999998 41.44 2.31 41.92 0.8 C 42.06592078668128 0.32591110910729126 42.50396254934374 0.002415402771898334 43 0.002415402771898334 C 43.49603745065626 0.002415402771898334 43.93407921331872 0.32591110910729104 44.08 0.7999999999999997 L 53.71 30.42 L 84.86 30.42 C 85.35984569392478 30.4073208364014 85.80859692146242 30.724644212051793 85.96324634085116 31.200133471664916 C 86.1178957602399 31.675622731278036 85.94167054191453 32.19621514514601 85.53 32.480000000000004 L 70.53 43.400000000000006 L 52.71 43.400000000000006 L 47.21 26.500000000000007 L 41.72 43.4 L 23.93 43.4 L 38.33 53.849999999999994 L 32.83 70.75999999999999 Z" stroke-linecap="round" />
</g>
<g transform="matrix(0.99 0 0 0.99 697.51 125.05)"  >
<path style="stroke: none; stroke-width: 1; stroke-dasharray: none; stroke-linecap: butt; stroke-dashoffset: 0; stroke-linejoin: miter; stroke-miterlimit: 4; fill: rgb(255,255,255); fill-rule: nonzero; opacity: 1;" vector-effect="non-scaling-stroke"  transform=" translate(-700.79, -125.04)" d="M 670.42 139.32 C 670.8143926470575 138.26614231848603 670.9044885013175 137.12261801441625 670.68 136.01999999999998 C 669.7761035341063 132.44401501182526 668.386514634113 129.00873591523188 666.55 125.80999999999997 L 666.55 70.37 C 666.55 50.10000000000001 665.0999999999999 36.230000000000004 656 29.620000000000005 C 658.12 29.480000000000004 660.27 29.400000000000006 662.43 29.400000000000006 C 670.9802953912109 29.39319371196104 679.4928686142248 30.53336057193802 687.7399999999998 32.78999999999999 C 682.2599999999999 37.43000000000001 679.8399999999999 43.2 678.2199999999999 51.400000000000006 C 683.4499999999999 43.77 690.6999999999999 38.400000000000006 698.6199999999999 36.49000000000001 C 706.1932889578225 39.586197511025844 713.3355550866256 43.646365738599556 719.8699999999999 48.57000000000001 C 701.8699999999999 48.57000000000001 692.0499999999998 58.85000000000001 684.7699999999999 73.29 C 699 59.35 717.31 54.06 733.09 60.58 C 738.9309636132449 66.97130871071327 743.8762178059908 74.1267887569517 747.7900000000001 81.84999999999994 C 740.1700000000001 76.33 725.7900000000001 71.17999999999999 718.4300000000001 77.85 C 720.69 86.78999999999999 712.5300000000001 86.19999999999999 704.1400000000001 84.78999999999999 C 686.4600000000002 81.78999999999999 682.8900000000001 100.19 693.2800000000001 106 C 699.6400000000001 108.87 707.0400000000001 106 708.3800000000001 100.83 C 709.1700000000001 97.83 706.6800000000001 94.91 703.0800000000002 95.83 C 705.8500000000001 101.42999999999999 695.4600000000002 102.83 694.9600000000002 96.42 C 694.7200000000001 93.42 697.6900000000002 91.75 703.3800000000001 91.49000000000001 C 730.5000000000001 90.26 748.2400000000001 88.73 755.2000000000002 105.69000000000001 C 759.2000000000002 115.52000000000001 758.6000000000001 126.75000000000001 755.9800000000001 130.23000000000002 C 751.9800000000001 124.31000000000002 744.4500000000002 120.12000000000002 716.9800000000001 121.13000000000002 C 714.4766979844462 121.24431016217413 712.269551268672 122.80689190785505 711.3300000000002 125.13000000000002 L 718.9200000000002 125.13000000000002 C 720.3200000000002 126.83000000000003 723.4700000000001 132.54000000000002 724.9900000000002 135.59000000000003 C 725.4700000000003 136.59000000000003 726.4500000000003 139.00000000000003 725.6600000000002 139.86000000000004 C 717.1617076772752 138.65631951541658 708.4964168198488 139.6903637704794 700.5200000000002 142.86000000000007 C 699.0500000000002 143.42000000000004 699.1900000000002 143.71000000000004 700.7400000000002 143.78000000000003 C 701.6200000000002 143.78000000000003 702.0400000000002 143.78000000000003 703.3600000000002 143.78000000000003 C 705.2322663455673 145.1276590034203 707.3750471678653 146.05233034552663 709.6400000000002 146.49000000000004 C 711.3129725665651 146.89974601699166 713.0523430772403 146.9610154283266 714.7500000000002 146.67000000000004 C 715.9400000000003 146.44000000000005 717.5200000000002 146.28000000000006 718.1700000000002 147.01000000000005 C 718.5100000000002 147.39000000000004 718.7200000000001 147.30000000000004 718.6400000000002 146.76000000000005 C 718.5107834757429 145.73316970051368 718.059115212407 144.77381230397083 717.3500000000003 144.02000000000004 C 717.0000000000002 143.62000000000003 717.1200000000002 143.37000000000003 717.6000000000003 143.39000000000004 C 719.2668898055491 143.49244177178224 720.9383480950816 143.28562847429447 722.5300000000002 142.78000000000003 C 722.7300000000002 142.69000000000003 722.9900000000002 142.70000000000002 722.9000000000002 143.00000000000003 C 722.6299584362871 144.19103720835713 723.1487869118362 145.4217466154735 724.1900000000002 146.06000000000003 C 726.3800000000002 147.62000000000003 728.6100000000001 149.11000000000004 731.9600000000002 155.06000000000003 C 735.5800000000002 161.52000000000004 736.4400000000002 164.63000000000002 732.7500000000001 166.14000000000004 C 731.0420220737982 166.89625173487192 729.2587391404571 167.4694498205887 727.4300000000001 167.85000000000005 C 726.6200000000001 168.03000000000006 726.6200000000001 168.05000000000004 726.82 168.85000000000005 C 727.02 169.65000000000006 727.3000000000001 171.33000000000004 727.4200000000001 172.30000000000004 C 727.5780905640103 172.79354246846097 727.5132366573584 173.3314771899593 727.2423769863651 173.77330502207602 C 726.9715173153719 174.21513285419275 726.5215504985839 174.51697661773807 726.0100000000001 174.60000000000005 C 723.2479461343152 175.32158399907334 720.4510056027991 175.90233298771747 717.6300000000001 176.34000000000006 C 717.4919288125424 176.35932996624416 717.395670033756 176.48692881254237 717.4150000000002 176.62500000000009 C 717.4343299662443 176.7630711874578 717.5619288125424 176.85932996624416 717.7000000000002 176.84000000000006 C 719.735569034526 176.73223272029324 721.7766614839798 176.80249983740558 723.8000000000002 177.05000000000007 C 724.6100000000001 177.16000000000008 727.0700000000002 179.54000000000008 727.0700000000002 180.39000000000007 C 727.0469536871663 182.40819294222945 726.1539063851633 184.31822064120712 724.6200000000001 185.63000000000008 C 723.7100000000002 186.45000000000007 723.6900000000002 186.55000000000007 724.3500000000001 188.08000000000007 C 724.9200000000002 189.41000000000008 726.2300000000001 192.34000000000006 725.1400000000001 194.79000000000008 C 721.44 203.11000000000007 711.1400000000001 201.68000000000006 699.5600000000001 200.60000000000008 C 694.09 200.0900000000001 693.5600000000001 200.1500000000001 693.44 203.60000000000008 C 693.3601699441742 207.49050503872508 693.5338710789026 211.38207853792738 693.96 215.25000000000003 C 677.9693237794921 220.86283549781217 660.7806116869142 222.1563869797942 644.13 219 C 643.4399999999999 213.66 643.21 207 644.06 203.9 C 644.8499999999999 201 647.92 201.27 650.1999999999999 201.63 C 654.5449906253193 202.3479787758082 658.9470631699014 202.66265164211293 663.3499999999999 202.57 C 667.6499999999999 202.39 669.3499999999999 201.1 670.3499999999999 198.20999999999998 C 671.3499999999999 195.31999999999996 669.9399999999999 191.51 669.3499999999999 190.08999999999997 C 668.5299999999999 188.18999999999997 669.0099999999999 188.14999999999998 671.1599999999999 185.85999999999999 C 672.6699999999998 184.26 672.7799999999999 183.64 672.3199999999998 182.66 C 671.7421570826461 181.47822701769326 670.9168147107366 180.43461228296457 669.8999999999999 179.6 C 669.6599999999999 179.41 669.5699999999998 179.38 669.1099999999999 179.41 C 666.9251094903809 179.5346412999094 664.7348905096189 179.5346412999094 662.55 179.41 C 662.4437183836836 179.3874697332902 662.3676969600708 179.2936434300122 662.3676969600708 179.185 C 662.3676969600708 179.0763565699878 662.4437183836836 178.9825302667098 662.55 178.96 C 665.5088172525898 178.3868368142147 668.3844248183674 177.44621751699773 671.1099999999999 176.16 C 671.7399999999999 175.82 671.7899999999998 175.57 671.6099999999999 174.97 C 671.2500612062537 173.67107431218048 670.7609544264002 172.41145685173575 670.1499999999999 171.21 C 669.7799999999999 170.5 669.9399999999998 170.21 670.8099999999998 170.21 C 672.6830004838426 170.15126907423232 674.5199831159184 169.6800727857073 676.1899999999998 168.83 C 678.7299999999998 167.33 678.9999999999998 165.97 678.0399999999998 163 C 676.9149932737554 159.70816713292226 675.5582659690627 156.5001419789691 673.9799999999999 153.39999999999998 C 672.2899999999998 150.16 671.6099999999999 149.31 670.6499999999999 148.46 C 669.4099999999999 147.35 667.9699999999999 145.70000000000002 667.8699999999999 145.06 C 667.8987613558216 144.51056808208534 668.0490372502113 143.9743563680131 668.31 143.49 C 668.8198444639077 142.1207545561307 669.1558037976412 140.69292738776318 669.31 139.24 Z" stroke-linecap="round" />
</g>
<g transform="matrix(0.99 0 0 0.99 615.59 119.71)"  >
<path style="stroke: none; stroke-width: 1; stroke-dasharray: none; stroke-linecap: butt; stroke-dashoffset: 0; stroke-linejoin: miter; stroke-miterlimit: 4; fill: rgb(237,28,36); fill-rule: nonzero; opacity: 1;" vector-effect="non-scaling-stroke"  transform=" translate(-618.03, -119.65)" d="M 622.49 38.12 C 629.2800818993002 34.99277339226605 636.4163663999866 32.680026439785834 643.7499999999999 31.23000000000001 C 650.01 45.519999999999996 649.67 58.23 644.96 69.22999999999999 C 642.44 52.6 632.24 41.75 622.49 38.12 Z M 630.34 88.87 C 633.5279628257878 86.03192150180193 636.4286324023398 82.88673820805795 639 79.48000000000002 C 635.52 62.81 623.11 50.38 605.89 47.910000000000004 C 597.3381570196577 54.192086141505555 589.8842350570484 61.845365037838405 583.8299999999999 70.56000000000012 C 605.22 62.46 623.79 75.79 630.34 88.87 Z M 621.5300000000001 95.79 C 610.5300000000001 80.91000000000001 588.3700000000001 82.36000000000001 573.2600000000001 90.36000000000001 C 569.98937572849 98.74207125759814 567.928702152609 107.54707354669728 567.1400000000001 116.50999999999999 C 585.59 113.61 605.84 106.58 621.53 95.79 Z M 614.8100000000001 208.06 C 609.08 190.82 616.6 173.65 643.48 177.3 C 645.09 170.3 642.57 166.45000000000002 636.71 164 C 618.71 156.52 631.7800000000001 132.57 647.98 125.81 L 666.5500000000001 125.81 L 666.5500000000001 114.12 C 641.7400000000001 114.12 629.1 114.87 620.84 116.41000000000001 C 614.01 117.68 609.65 120.68 610.74 125.83000000000001 C 612.2 132.71 622.46 131.63000000000002 619.25 125.15 C 620.8641107167151 124.60788016730875 622.6450911040208 124.9771428358903 623.9106081550667 126.1163153040986 C 625.1761252061127 127.2554877723069 625.7299882135703 128.98796629377415 625.36 130.65 C 624.75 133.57 623.36 135.43 619.64 137.02 C 614.27 139.33 591.29 144.71 584.28 180.26000000000002 C 592.3264800925862 191.62548724457451 602.7426485857209 201.11023942633483 614.81 208.05999999999995 Z M 608.45 136.72 C 603.2683698014253 133.52062534889075 601.4902541250292 126.82964191474835 604.4000000000001 121.48 C 598.7200000000001 123.18 589.71 124.48 566.7700000000001 124.65 L 566.7700000000001 125.07000000000001 C 566.7509494836544 138.5821243117284 569.6039818277676 151.94399622203176 575.1400000000001 164.26999999999995 C 583.32 149.14 596 139.23 608.45 136.72 Z M 668.3900000000001 143.12 C 668.8466979248352 141.8571824995559 669.1521605649258 140.54470016685903 669.3000000000001 139.21 C 667.6 139.11 664.4000000000001 139.06 662.1200000000001 139.21 C 656.6701277629237 139.70694128878827 651.2989100874095 140.85168205588224 646.1200000000001 142.62 L 645.5900000000001 142.83 C 643.8600000000001 143.53 644.4900000000001 144.08 645.8600000000001 144.15 C 646.7898232559759 144.20874875926168 647.7228788245362 144.19202733330184 648.6500000000001 144.1 C 650.6690479475874 145.69120608646276 653.0043698500805 146.83329781979882 655.5000000000001 147.45 C 657.1835848470181 147.9236192452994 658.9609226198188 147.95461932273196 660.6600000000001 147.54 C 662.22 147.10999999999999 663.71 147.20999999999998 664.32 147.84 C 664.4275567284851 147.95631781020347 664.5985127511588 147.98865129985504 664.7411199185863 147.91964783174492 C 664.8837270860139 147.85064436363479 664.9644635845905 147.69652417015251 664.94 147.54 C 664.7822453025525 146.57996435932716 664.3478307300871 145.68680799833842 663.69 144.97 C 663.2 144.4 663.49 144.1 663.87 144.12 C 664.8617676136658 144.14609147125088 665.8520763207157 144.02819757755447 666.8100000000001 143.77 C 667.3534032417491 143.5964870109479 667.8818086736179 143.37910502948287 668.39 143.12 Z" stroke-linecap="round" />
</g>
</svg>