<svg id="Capa_1" data-name="Capa 1" xmlns="http://www.w3.org/2000/svg" viewBox="0 0 257.01 336.4"><defs><style>.cls-1{fill:#fff;}</style></defs><title>Escudo HTA</title><path class="cls-1" d="M257,19.85C194,3.51,128.5,0,128.5,0h-.07V9.06c5.69.34,63.35,4.06,120,18,0,22.07,0,84.46,0,123.61v27.53c0,32.9-15.84,65.17-47.06,95.92-19.12,18.82-43.66,36.72-73,53.24v9l.07,0C167.62,314.86,257,259.17,257,177.57,257,159,257,34.78,257,19.85Z"/><path class="cls-1" d="M128.43,327.34h0c-29.33-16.52-53.87-34.42-73-53.24-31.22-30.75-47.06-63-47.06-95.92V150.67c0-39.13,0-101.51,0-123.64,56.71-13.92,114.38-17.63,120-18h0V0C126.1.13,61.82,3.8,0,19.85,0,34.94,0,159,0,177.57c0,81.55,89.26,137.22,128.42,158.79Z"/><path class="cls-1" d="M145.31,166.2l91.8-91.8V63.2l-97.4,97.4-5.6-5.6,103-103V40.8l-75,75L151.64,92.46,157,87.15l6.47,4.65V82.32l-7.66-7.92H128.5v7.92h9.92v0l-9.91,9.9,5.6,5.6,7.78-7.77,14.22,31.72-5.2,5.21L128.5,104.59V115.8l16.81,16.8-5.61,5.6L128.5,127v11.2l5.6,5.6-5.6,5.6v11.2L212,244.06c1.64-2.16,3.22-4.32,4.71-6.49l-20.95-20.95,41.38-41.38V164l-47,47-14-14,61-61c0-3.64,0-7.39,0-11.21l-66.6,66.6L159.3,180.2l77.81-77.8V91.19L153.7,174.6Z"/><path class="cls-1" d="M128.51,171.81l-.08.09v11.2l.08-.08,73.24,73.23q2.72-3,5.23-6Z"/><path class="cls-1" d="M128.5,199.8V211l59.23,59.23q3-2.72,5.76-5.45Z"/><path class="cls-1" d="M128.5,233.41v11.21h0l40.9,40.89c2.13-1.63,4.22-3.28,6.27-4.93Z"/><path class="cls-1" d="M128.5,272.63v11.21h0l17.82,17.81q3.44-2.2,6.76-4.44Z"/><path class="cls-1" d="M128.5,171.82,50,250.36q2.52,3,5.23,6L128.5,183Z"/><path class="cls-1" d="M128.43,199.87l-65,65c1.86,1.83,3.78,3.64,5.76,5.45l59.22-59.23Z"/><path class="cls-1" d="M128.43,233.49,81.27,280.65q3.08,2.48,6.27,4.93l40.89-40.89Z"/><path class="cls-1" d="M128.5,272.64l-24.63,24.63q3.33,2.24,6.76,4.44l17.87-17.87Z"/><path class="cls-1" d="M128.5,149.4l-27.62-27.62,3.47-7.73L128.5,138.2V127l-20.68-20.69,3.47-7.73L128.5,115.8V104.59L114.75,90.84l3.82-8.52h9.93V74.4H113.44L94.89,115.79,19.75,40.65v11.2L122.9,155l-5.6,5.6L19.75,63.05V74.26l92,91.94-8.39,8.4L19.75,91.05v11.2l78,77.95L86.5,191.41,19.76,124.67v11.2L80.9,197l-14,14L19.76,163.89v11.2l41.53,41.53-21,21c1.49,2.17,3.07,4.34,4.72,6.49L128.5,160.6Z"/></svg>