<svg id="Capa_1" data-name="Capa 1" xmlns="http://www.w3.org/2000/svg" viewBox="0 0 758.09 220.73"><defs><style>.cls-1{fill:#005a24;}.cls-2{fill:#ed1c24;}.cls-3{fill:#fff;}</style></defs><title>logo_heineken</title><path class="cls-1" d="M436,204.87a2.28,2.28,0,0,1-2.42-2.28v-42a2.21,2.21,0,0,1,2.22-2.35h6.06a2.21,2.21,0,0,1,2.21,2.35v42a2.28,2.28,0,0,1-2.42,2.28Zm-114.25-1.81a2.56,2.56,0,0,1-2.72,1.81h-2.25a2.83,2.83,0,0,1-3-1.85l-11.59-24.68-.44,23.89c0,2-1,2.64-2.8,2.64h-4.37a2.41,2.41,0,0,1-2.73-2.78l1.81-41.37a2.35,2.35,0,0,1,2.6-2.48h4a3.08,3.08,0,0,1,3.15,2l14.76,30.44,13.53-30.41a2.93,2.93,0,0,1,3-2.06h3.79a2.27,2.27,0,0,1,2.54,2.41L343.2,202c.09,1.66-.67,2.84-2.53,2.84H335.4c-1.87,0-2.66-.85-2.73-3.13l-.74-23.49Zm104.52-1.67a2.34,2.34,0,0,1,.21,2.41,2.26,2.26,0,0,1-2.07,1.07h-6.12a3.66,3.66,0,0,1-3.41-1.92l-8-13.51-8,13.5a3.52,3.52,0,0,1-3.49,1.93h-5.34a2.08,2.08,0,0,1-1.95-1,2.37,2.37,0,0,1,.21-2.41l13-20.55L389.24,161.6a2.31,2.31,0,0,1-.17-2.35,2.09,2.09,0,0,1,1.9-1h6.18a3.62,3.62,0,0,1,3.22,1.94L407.42,172l7.23-12a3.11,3.11,0,0,1,3.09-1.74h5.8a2.05,2.05,0,0,1,1.91,1,2.24,2.24,0,0,1-.27,2.35l-12.29,18.65Zm27.47-19.83c0-15,7.94-24.07,21.23-24.07a33.05,33.05,0,0,1,13.21,2.72,2.38,2.38,0,0,1,1.46,3.35l-1.41,3.8a2.21,2.21,0,0,1-1.21,1.36,2.41,2.41,0,0,1-1.94-.2,21.42,21.42,0,0,0-8.82-2c-7.19,0-11.48,5.52-11.48,15s4.29,15,11.48,15a21.42,21.42,0,0,0,8.82-2,2.45,2.45,0,0,1,1.94-.21,2.26,2.26,0,0,1,1.21,1.37l1.41,3.8a2.38,2.38,0,0,1-1.46,3.35A33.05,33.05,0,0,1,475,205.63C461.71,205.63,453.77,196.52,453.77,181.56Zm41,0c0,14.73,8,24.07,20.64,24.07S536,196.29,536,181.56s-8-24.07-20.63-24.07S494.77,166.83,494.77,181.56Zm11,0c0-9.94,3.24-15,9.63-15s9.63,5,9.63,15-3.24,15-9.63,15S505.78,191.5,505.78,181.56Zm-145-29.68a2.78,2.78,0,0,1-.62-1.89,2.4,2.4,0,0,1,1.23-1.65l8.77-6.21a2.76,2.76,0,0,1,2.12-.71,2.56,2.56,0,0,1,1.64,1.23l1.92,2.89a2.43,2.43,0,0,1,.46,1.92,2.28,2.28,0,0,1-1.22,1.41l-9.77,5.39a3.22,3.22,0,0,1-1.5.45,2.36,2.36,0,0,1-1.93-1.21Zm18.82,53a2.36,2.36,0,0,0,2.6-2.6v-3.66a2.37,2.37,0,0,0-2.67-2.54H363.4V185.32h13.79a2.29,2.29,0,0,0,2.6-2.47v-3.8a2.29,2.29,0,0,0-2.6-2.47H363.4v-9.53h15c1,0,3,0,3.24-2.28l.44-3.84a2.38,2.38,0,0,0-.42-2,2.47,2.47,0,0,0-2-.73H355.12a2.21,2.21,0,0,0-2.21,2.35v42a2.28,2.28,0,0,0,2.42,2.28Z"/><path class="cls-1" d="M410.74,57.08H397.63a9.6,9.6,0,0,0-8.08,3.68L371,82.11v-25H352.85V121a3.65,3.65,0,0,0,3.64,3.63H371V94l16,25c2.4,3.75,4.77,5.59,10.23,5.59H412.2L386.69,84.78l24.05-27.7Zm-76.9,0H293.35v61.53c0,3.37,3.33,6,6.82,6h33.67a3.65,3.65,0,0,0,3.63-3.63V112.3H314.25a2.75,2.75,0,0,1-2.73-2.76V95.33h20.7V83h-20.7V69.43h26v-8.7a3.65,3.65,0,0,0-3.63-3.65Zm127.9,0H421.25v61.53c0,3.37,3.33,6,6.82,6h33.67a3.64,3.64,0,0,0,3.63-3.63V112.3H442.15a2.75,2.75,0,0,1-2.73-2.76V95.33h20.7V83h-20.7V69.43h25.95v-8.7a3.65,3.65,0,0,0-3.63-3.65Zm-257.69,0H185.88V121a3.64,3.64,0,0,0,3.63,3.63h14.54V57.08Zm-38.36,0H125.2v61.53c0,3.51,3.33,6,6.82,6h33.67a3.65,3.65,0,0,0,3.63-3.63V112.3H146.1a2.75,2.75,0,0,1-2.73-2.76V95.33h20.7V83h-20.7V69.43h25.95v-8.7a3.65,3.65,0,0,0-3.63-3.65Zm-58.86,0H88.66V83H72.77V57.08H51.67v2.66a4.8,4.8,0,0,1,2.88,4.53v60.38H72.77V95.33H88.66v29.32h18.17V57.08Zm168.16,0V121a3.64,3.64,0,0,1-3.64,3.63H260.2L235.66,85.93a51.38,51.38,0,0,1,.51,7.24v31.48H222.58V57.08h8.8a11.21,11.21,0,0,1,10.13,5.56L262.06,95s-.66-2-.66-7.32V57.08Zm261,0v2.66a4.91,4.91,0,0,0-2.88,4.53l0,56.75a3.63,3.63,0,0,1-3.62,3.63H518.4L493.86,85.93a51.38,51.38,0,0,1,.51,7.24v31.48H480.78V57.08h8.81a11.2,11.2,0,0,1,10.12,5.56L520.26,95s-.66-2-.66-7.32V57.08Z"/><path class="cls-2" d="M17.8,81.68a1.12,1.12,0,0,1-1.75-1.25c.5-1.5,9.63-29.64,9.63-29.64L.48,32.48a1.13,1.13,0,0,1,.67-2.06H32.3S41.44,2.31,41.92.8a1.13,1.13,0,0,1,2.16,0l9.63,29.62H84.86a1.13,1.13,0,0,1,.67,2.06l-15,10.92H52.71l-5.5-16.9L41.72,43.4H23.93l14.4,10.45-5.5,16.91Z"/><circle class="cls-3" cx="662.43" cy="125.07" r="95.66"/><path class="cls-1" d="M670.42,139.32a6,6,0,0,0,.26-3.3,40.38,40.38,0,0,0-4.13-10.21V70.37c0-20.27-1.45-34.14-10.55-40.75,2.12-.14,4.27-.22,6.43-.22a95.61,95.61,0,0,1,25.31,3.39c-5.48,4.64-7.9,10.41-9.52,18.61,5.23-7.63,12.48-13,20.4-14.91a95.14,95.14,0,0,1,21.25,12.08c-18,0-27.82,10.28-35.1,24.72C699,59.35,717.31,54.06,733.09,60.58a95.56,95.56,0,0,1,14.7,21.27c-7.62-5.52-22-10.67-29.36-4,2.26,8.94-5.9,8.35-14.29,6.94-17.68-3-21.25,15.4-10.86,21.21,6.36,2.87,13.76,0,15.1-5.17.79-3-1.7-5.92-5.3-5,2.77,5.6-7.62,7-8.12.59-.24-3,2.73-4.67,8.42-4.93,27.12-1.23,44.86-2.76,51.82,14.2,4,9.83,3.4,21.06.78,24.54-4-5.92-11.53-10.11-39-9.1a6.41,6.41,0,0,0-5.65,4h7.59c1.4,1.7,4.55,7.41,6.07,10.46.48,1,1.46,3.41.67,4.27a49.34,49.34,0,0,0-25.14,3c-1.47.56-1.33.85.22.92.88,0,1.3,0,2.62,0a15.92,15.92,0,0,0,6.28,2.71,12.56,12.56,0,0,0,5.11.18c1.19-.23,2.77-.39,3.42.34.34.38.55.29.47-.25a4.89,4.89,0,0,0-1.29-2.74c-.35-.4-.23-.65.25-.63a13.54,13.54,0,0,0,4.93-.61c.2-.09.46-.08.37.22a2.85,2.85,0,0,0,1.29,3.06c2.19,1.56,4.42,3.05,7.77,9,3.62,6.46,4.48,9.57.79,11.08a26.45,26.45,0,0,1-5.32,1.71c-.81.18-.81.2-.61,1s.48,2.48.6,3.45a1.78,1.78,0,0,1-1.41,2.3,84.26,84.26,0,0,1-8.38,1.74.25.25,0,0,0,.07.5,35,35,0,0,1,6.1.21c.81.11,3.27,2.49,3.27,3.34a7,7,0,0,1-2.45,5.24c-.91.82-.93.92-.27,2.45.57,1.33,1.88,4.26.79,6.71-3.7,8.32-14,6.89-25.58,5.81-5.47-.51-6-.45-6.12,3a89.6,89.6,0,0,0,.52,11.65A96.3,96.3,0,0,1,644.13,219c-.69-5.34-.92-12-.07-15.1.79-2.9,3.86-2.63,6.14-2.27a71.44,71.44,0,0,0,13.15.94c4.3-.18,6-1.47,7-4.36s-.41-6.7-1-8.12c-.82-1.9-.34-1.94,1.81-4.23,1.51-1.6,1.62-2.22,1.16-3.2a9.17,9.17,0,0,0-2.42-3.06c-.24-.19-.33-.22-.79-.19a57.59,57.59,0,0,1-6.56,0,.23.23,0,0,1,0-.45,36.18,36.18,0,0,0,8.56-2.8c.63-.34.68-.59.5-1.19a20.19,20.19,0,0,0-1.46-3.76c-.37-.71-.21-1,.66-1a12.74,12.74,0,0,0,5.38-1.38c2.54-1.5,2.81-2.86,1.85-5.83a73.68,73.68,0,0,0-4.06-9.6c-1.69-3.24-2.37-4.09-3.33-4.94-1.24-1.11-2.68-2.76-2.78-3.4a3.72,3.72,0,0,1,.44-1.57,17.46,17.46,0,0,0,1-4.25Z"/><path class="cls-2" d="M622.49,38.12a94.76,94.76,0,0,1,21.26-6.89c6.26,14.29,5.92,27,1.21,38C642.44,52.6,632.24,41.75,622.49,38.12Zm7.85,50.75A65,65,0,0,0,639,79.48c-3.48-16.67-15.89-29.1-33.11-31.57a96.23,96.23,0,0,0-22.06,22.65C605.22,62.46,623.79,75.79,630.34,88.87Zm-8.81,6.92c-11-14.88-33.16-13.43-48.27-5.43a94.8,94.8,0,0,0-6.12,26.15C585.59,113.61,605.84,106.58,621.53,95.79Zm-6.72,112.27c-5.73-17.24,1.79-34.41,28.67-30.76,1.61-7-.91-10.85-6.77-13.3-18-7.48-4.93-31.43,11.27-38.19h18.57V114.12c-24.81,0-37.45.75-45.71,2.29-6.83,1.27-11.19,4.27-10.1,9.42,1.46,6.88,11.72,5.8,8.51-.68a4.72,4.72,0,0,1,6.11,5.5c-.61,2.92-2,4.78-5.72,6.37-5.37,2.31-28.35,7.69-35.36,43.24A96.28,96.28,0,0,0,614.81,208.06Zm-6.36-71.34a11.47,11.47,0,0,1-4.05-15.24c-5.68,1.7-14.69,3-37.63,3.17v.42a95.35,95.35,0,0,0,8.37,39.2C583.32,149.14,596,139.23,608.45,136.72Zm59.94,6.4a17,17,0,0,0,.91-3.91c-1.7-.1-4.9-.15-7.18,0a68.87,68.87,0,0,0-16,3.41l-.53.21c-1.73.7-1.1,1.25.27,1.32a17.24,17.24,0,0,0,2.79-.05,18.07,18.07,0,0,0,6.85,3.35,10.16,10.16,0,0,0,5.16.09c1.56-.43,3.05-.33,3.66.3a.36.36,0,0,0,.62-.3,5,5,0,0,0-1.25-2.57c-.49-.57-.2-.87.18-.85a10.26,10.26,0,0,0,2.94-.35A10.53,10.53,0,0,0,668.39,143.12Z"/></svg>