<svg id="Capa_1" data-name="Capa 1" xmlns="http://www.w3.org/2000/svg" viewBox="0 0 400 400"><defs><style>.cls-1{fill:#fff;}</style></defs><title>Proceso</title><g id="KKXLQb.tif"><path class="cls-1" d="M231.25,0c2.2.66,4.42,1.29,6.61,2,17.43,5.62,28.7,21.12,28.81,40.69.2,36.58.05,73.17.07,109.76,0,4.24-1.25,7.66-5.54,9.35-3.47,1.36-6.72.61-8.79-2.17a12.61,12.61,0,0,1-2.29-7.1C250,116.07,250,79.61,250,43.16c0-12.78-7.19-22.55-18.8-25.55a31.32,31.32,0,0,0-7.73-.84q-90.22-.07-180.45,0c-13,0-22.55,7.16-25.45,18.81a35.65,35.65,0,0,0-.81,8.52q-.07,90.42,0,180.84v4.87c8.5-8.52,16-16.23,23.75-23.76A25.48,25.48,0,0,1,72.1,202.8,38.92,38.92,0,0,1,78,207.87c7.15,7,14.23,14.12,21.35,21.18.16.16.47.18.93.35.94-.91,2-1.86,3-2.86l77.06-77c12.16-12.15,27.13-12.2,39.23-.15,3.6,3.59,7.23,7.14,10.76,10.79,4,4.13,4.14,8.92.55,12.46s-8.44,3.21-12.47-.71c-3.64-3.54-7.19-7.17-10.78-10.76-5.5-5.47-9.75-5.45-15.33.13l-84.24,84.23c-6.28,6.27-9.82,6.26-16.1,0q-13.12-13.12-26.24-26.24c-5.23-5.2-9.51-5.17-14.8.1-10.6,10.57-21.24,21.1-31.69,31.83a9.22,9.22,0,0,0-2.38,5.73c-.22,11.07-.18,22.14-.09,33.2.14,16.29,10.43,26.43,26.73,26.44q53.52,0,107,0a32.07,32.07,0,0,1,4.28.11,8.4,8.4,0,0,1,.12,16.72,19.08,19.08,0,0,1-3.12.13q-54.48,0-109,0c-19.15,0-34.94-11.27-40.76-28.79C1.3,302.36.68,300,0,297.66V35.94a23.44,23.44,0,0,0,.79-2.55,41.88,41.88,0,0,1,14-23.56C20.87,4.48,28.24,1.91,35.94,0Z"/><path class="cls-1" d="M281.25,400c-3.92-.76-7.86-1.46-11.76-2.3a108.66,108.66,0,0,1-84.91-88.84C175.19,253.22,211.77,199,267.4,186,327.94,172,388.23,212.28,398.49,273.7c.42,2.53,1,5,1.51,7.55v20.31a28.34,28.34,0,0,0-.77,3c-6.82,44.62-31.5,74.7-73.9,89.95-7.6,2.73-15.83,3.72-23.77,5.51Zm102-108.41C383.15,241.1,342,199.91,291.6,200S199.94,241.44,200,291.72s41.38,91.62,91.73,91.53A91.68,91.68,0,0,0,383.23,291.59Z"/><path class="cls-1" d="M83.27,83.32A33.33,33.33,0,1,1,50,116.92,33.28,33.28,0,0,1,83.27,83.32Zm.2,49.89A16.74,16.74,0,0,0,100,116.51,17,17,0,0,0,83.21,100a16.75,16.75,0,0,0-16.43,16.79A16.51,16.51,0,0,0,83.47,133.21Z"/></g><path class="cls-1" d="M346.12,305.65l-10-5.79a45.58,45.58,0,0,0,0-16.55l10-5.79a2.84,2.84,0,0,0,1.3-3.3,58.57,58.57,0,0,0-12.89-22.29,2.83,2.83,0,0,0-3.49-.55l-10,5.8a44.42,44.42,0,0,0-14.32-8.27V237.34a2.82,2.82,0,0,0-2.22-2.76,59.23,59.23,0,0,0-25.73,0,2.82,2.82,0,0,0-2.22,2.76v11.59a45.91,45.91,0,0,0-14.32,8.27l-10-5.79a2.8,2.8,0,0,0-3.49.54,58.4,58.4,0,0,0-12.89,22.29,2.82,2.82,0,0,0,1.3,3.3l10,5.8a45.08,45.08,0,0,0,0,16.54l-10,5.8a2.84,2.84,0,0,0-1.3,3.3,58.77,58.77,0,0,0,12.89,22.29,2.83,2.83,0,0,0,3.49.54l10-5.79a44.65,44.65,0,0,0,14.33,8.27v11.59a2.83,2.83,0,0,0,2.21,2.76,59.23,59.23,0,0,0,25.73,0,2.82,2.82,0,0,0,2.22-2.76V334.29A46.15,46.15,0,0,0,321,326l10,5.79a2.79,2.79,0,0,0,3.48-.54A58.27,58.27,0,0,0,347.44,309,2.9,2.9,0,0,0,346.12,305.65Zm-54.53,4.79a18.86,18.86,0,1,1,18.86-18.85A18.88,18.88,0,0,1,291.59,310.44Z"/></svg>