<?xml version="1.0" encoding="utf-8"?>
<!-- Generator: Adobe Illustrator 23.0.1, SVG Export Plug-In . SVG Version: 6.00 Build 0)  -->
<svg version="1.1" id="Capa_1" focusable="false" xmlns="http://www.w3.org/2000/svg" xmlns:xlink="http://www.w3.org/1999/xlink"
	 x="0px" y="0px" viewBox="0 0 512 512" style="enable-background:new 0 0 512 512;" xml:space="preserve">
<style type="text/css">
	.st0{fill:none;stroke:#000000;stroke-width:10;stroke-miterlimit:10;}
	.st1{fill:none;stroke:#000000;stroke-width:8;stroke-miterlimit:10;}
</style>
<g>
	<path class="st0" d="M458.7,68.9H53.3c-25.8,0-46.8,20.9-46.8,46.8v280.7c0,25.8,20.9,46.8,46.8,46.8h405.4
		c25.8,0,46.8-20.9,46.8-46.8V115.7C505.5,89.8,484.6,68.9,458.7,68.9z"/>
	<circle class="st1" cx="131.2" cy="193.6" r="39"/>
	<path class="st1" d="M100.1,349.6h311.9v-78l-85.3-85.3c-4.6-4.6-12-4.6-16.5,0L193.6,302.8l-38.5-38.5c-4.6-4.6-12-4.6-16.5,0
		l-38.5,38.5V349.6z"/>
</g>
</svg>
